<svg xmlns="http://www.w3.org/2000/svg" xmlns:xlink="http://www.w3.org/1999/xlink" viewBox="0 0 153.73 138.67"><defs><style>.cls-1{fill:#fff;}.cls-2{fill:none;}.cls-3{clip-path:url(#clip-path);}.cls-4{clip-path:url(#clip-path-2);}.cls-5{clip-path:url(#clip-path-3);}.cls-6{fill:#007dff;}.cls-7{clip-path:url(#clip-path-4);}.cls-8{clip-path:url(#clip-path-5);}.cls-9{clip-path:url(#clip-path-7);}.cls-10{clip-path:url(#clip-path-8);}.cls-11{clip-path:url(#clip-path-10);}.cls-12{clip-path:url(#clip-path-11);}.cls-13{clip-path:url(#clip-path-13);}.cls-14{clip-path:url(#clip-path-14);}.cls-15{clip-path:url(#clip-path-16);}.cls-16{clip-path:url(#clip-path-17);}.cls-17{clip-path:url(#clip-path-19);}.cls-18{clip-path:url(#clip-path-20);}</style><clipPath id="clip-path" transform="translate(-20 -30.67)"><rect class="cls-1" x="50.51" y="31.71" width="25.44" height="46.85"/></clipPath><clipPath id="clip-path-2" transform="translate(-20 -30.67)"><rect class="cls-2" x="49.33" y="30.67" width="26.67" height="48"/></clipPath><clipPath id="clip-path-3" transform="translate(-20 -30.67)"><rect class="cls-2" x="50.51" y="31.71" width="25.44" height="46.85"/></clipPath><clipPath id="clip-path-4" transform="translate(-20 -30.67)"><rect x="50.51" y="114.2" width="30.5" height="31.29"/></clipPath><clipPath id="clip-path-5" transform="translate(-20 -30.67)"><rect x="49.33" y="113.33" width="32" height="33.33"/></clipPath><clipPath id="clip-path-7" transform="translate(-20 -30.67)"><rect x="20" y="82.91" width="30.51" height="31.3"/></clipPath><clipPath id="clip-path-8" transform="translate(-20 -30.67)"><rect x="20" y="82.67" width="30.67" height="32"/></clipPath><clipPath id="clip-path-10" transform="translate(-20 -30.67)"><rect x="81.01" y="145.49" width="30.3" height="22.8"/></clipPath><clipPath id="clip-path-11" transform="translate(-20 -30.67)"><rect x="80" y="145.33" width="32" height="24"/></clipPath><clipPath id="clip-path-13" transform="translate(-20 -30.67)"><rect x="50.51" y="57.69" width="30.5" height="25.22"/></clipPath><clipPath id="clip-path-14" transform="translate(-20 -30.67)"><rect x="49.33" y="56.92" width="32" height="26.86"/></clipPath><clipPath id="clip-path-16" transform="translate(-20 -30.67)"><rect x="110.23" y="31.7" width="62.46" height="25.98"/></clipPath><clipPath id="clip-path-17" transform="translate(-20 -30.67)"><rect x="109.33" y="30.67" width="64" height="28"/></clipPath><clipPath id="clip-path-19" transform="translate(-20 -30.67)"><rect x="20.01" y="31.7" width="91.31" height="25.98"/></clipPath><clipPath id="clip-path-20" transform="translate(-20 -30.67)"><rect x="20" y="30.67" width="92" height="28"/></clipPath></defs><title>Tazid Blue Logo hand </title><g id="Layer_1" data-name="Layer 1"><rect class="cls-1" x="30.51" y="1.04" width="25.44" height="46.85"/><g class="cls-3"><g class="cls-4"><g class="cls-5"><path class="cls-6" d="M50.51,31.71H75.94V78.52H50.51Z" transform="translate(-20 -30.67)"/></g></g></g><rect x="30.51" y="83.54" width="30.5" height="31.29"/><g class="cls-7"><rect x="29.33" y="82.67" width="32" height="33.33"/><g class="cls-8"><rect x="30.51" y="83.54" width="30.5" height="31.29"/><g class="cls-7"><path d="M50.51,114.2H81v31.34H50.51Z" transform="translate(-20 -30.67)"/></g></g></g><rect y="52.24" width="30.51" height="31.3"/><g class="cls-9"><rect y="52" width="30.67" height="32"/><g class="cls-10"><rect y="52.24" width="30.51" height="31.3"/><g class="cls-9"><path d="M20,82.91H50.51v31.33H20Z" transform="translate(-20 -30.67)"/></g></g></g><rect x="61.01" y="114.83" width="30.3" height="22.8"/><g class="cls-11"><rect x="60" y="114.67" width="32" height="24"/><g class="cls-12"><rect x="61.01" y="114.83" width="30.3" height="22.8"/><g class="cls-11"><path d="M81,145.49h30.27v22.8H81Z" transform="translate(-20 -30.67)"/></g></g></g><rect x="30.51" y="27.02" width="30.5" height="25.22"/><g class="cls-13"><rect x="29.33" y="26.26" width="32" height="26.86"/><g class="cls-14"><rect x="30.51" y="27.02" width="30.5" height="25.22"/><g class="cls-13"><path d="M50.51,57.69H81V82.94H50.51Z" transform="translate(-20 -30.67)"/></g></g></g><rect x="90.23" y="1.04" width="62.46" height="25.98"/><g class="cls-15"><rect x="89.33" width="64" height="28"/><g class="cls-16"><rect x="90.23" y="1.04" width="62.46" height="25.98"/><g class="cls-15"><path d="M110.23,57.69v-26h62.43v26Z" transform="translate(-20 -30.67)"/></g></g></g><rect x="0.01" y="1.04" width="91.31" height="25.98"/><g class="cls-17"><rect width="92" height="28"/><g class="cls-18"><rect x="0.01" y="1.04" width="91.31" height="25.98"/><g class="cls-17"><path d="M20,57.69v-26h91.35v26Z" transform="translate(-20 -30.67)"/></g></g></g><text x="-20" y="-30.67"/><text x="-20" y="-30.67"/><path class="cls-1" d="M90,127.26v-3.83h17.34v3.83Zm6.44,17.23V125.16h4.46v19.33Z" transform="translate(-20 -30.67)"/><path class="cls-1" d="M112.29,144.7a6.15,6.15,0,0,1-4.05-1.14,4.33,4.33,0,0,1-1.35-3.5,3.88,3.88,0,0,1,1.5-3.35,7.61,7.61,0,0,1,4.52-1.11h4.23l.22,3h-4.44a2.61,2.61,0,0,0-1.51.36,1.24,1.24,0,0,0-.5,1.08,1.16,1.16,0,0,0,.64,1.09,4,4,0,0,0,1.91.36,7.32,7.32,0,0,0,2.65-.37A1.19,1.19,0,0,0,117,140l.34,2.19a2,2,0,0,1-.86,1.41,5.32,5.32,0,0,1-1.88.83A9.71,9.71,0,0,1,112.29,144.7Zm4.7-.21V135a1.88,1.88,0,0,0-.78-1.61,3.78,3.78,0,0,0-2.21-.56,6.61,6.61,0,0,0-1.87.27,5.45,5.45,0,0,0-1.65.77l-2.76-2.42a6.75,6.75,0,0,1,2.67-1.6,11.21,11.21,0,0,1,3.67-.57,8.09,8.09,0,0,1,5.16,1.46,5,5,0,0,1,1.82,4.13v9.66Z" transform="translate(-20 -30.67)"/><path class="cls-1" d="M137.73,129.46v3.36l-7.47,8.06h7.91v3.61H124.94v-3.42l7.68-8h-7.45v-3.6Z" transform="translate(-20 -30.67)"/><path class="cls-1" d="M141.67,127.4v-4h4.45v4Zm0,17.09v-15h4.45v15Z" transform="translate(-20 -30.67)"/><path class="cls-1" d="M155.46,144.7a7.9,7.9,0,0,1-6.38-2.28,7.75,7.75,0,0,1-1.86-4.2V135.6a7.89,7.89,0,0,1,2.28-4.94,6.85,6.85,0,0,1,5.17-2,6.76,6.76,0,0,1,2.05.57,7.44,7.44,0,0,1,1.21.75,12.07,12.07,0,0,1,1.86,1.72l-.41,3.64a3.57,3.57,0,0,0-3.89-3,4,4,0,0,0-2,.45,4.41,4.41,0,0,0-2,2.61,5.12,5.12,0,0,0,.19,3.46,3.44,3.44,0,0,0,.56,1.1,3.83,3.83,0,0,0,2.79,1.31,4.13,4.13,0,0,0,2.66-.65,4.33,4.33,0,0,0,1.69-2.26l.23,3.8A4,4,0,0,1,158,144,4.93,4.93,0,0,1,155.46,144.7Zm3.92-.21V123.43h4.46v21.06Z" transform="translate(-20 -30.67)"/><circle cx="149.73" cy="111.56" r="2.49"/></g><g id="Layer_2" data-name="Layer 2"><polygon class="cls-1" points="152.83 47.17 147.8 47.17 146.09 51.8 151.6 51.8 153.73 47.17 152.83 47.17"/><polygon class="cls-1" points="144.96 47.17 139.93 47.17 138.22 51.8 143.73 51.8 145.86 47.17 144.96 47.17"/><path class="cls-1" d="M171.6,86.28h-5.41l.25,12-.83,2-1.75,1.85-27.67.57V86.28h-5.87V108l-.53,1.73-2.07,2.42-3.1.14c-.46,1.63-.93,3.26-1.39,4.89l-.16.72,5.64-.28,2.48-1.67,1.84-1.8,1.76-2.83.45-2.32,28.17-.36,2.58-1,2.32-1.49,1.75-2.5,1.54-3Z" transform="translate(-20 -30.67)"/><path class="cls-1" d="M122.06,94.63h-4.27v5.56l-2.56,2.63H79.17l-1-.8s0-8.3,0-8.3S75.64,90,75.64,90l-1.76-2-2.56-1.8-2.47-.86H60.51v5.46l8.29-.05,3.44,2.9L74,95.49V103H52.08v5.51h63.13l4.32-2.78,2.53-4.6Z" transform="translate(-20 -30.67)"/><polygon class="cls-1" points="97.36 80.41 92.32 80.41 90.61 85.03 96.13 85.03 98.26 80.41 97.36 80.41"/><polygon class="cls-1" points="89.49 80.41 84.45 80.41 82.75 85.03 88.26 85.03 90.39 80.41 89.49 80.41"/><polygon class="cls-1" points="117.05 47.17 112.02 47.17 110.31 51.8 115.83 51.8 117.95 47.17 117.05 47.17"/></g></svg>